<?xml version="1.0" standalone="no"?>
<!DOCTYPE svg PUBLIC "-//W3C//DTD SVG 20010904//EN"
 "http://www.w3.org/TR/2001/REC-SVG-20010904/DTD/svg10.dtd">
<svg version="1.0" xmlns="http://www.w3.org/2000/svg"
 width="257.000000pt" height="259.000000pt" viewBox="0 0 257.000000 259.000000"
 preserveAspectRatio="xMidYMid meet">
<metadata>
Created by potrace 1.10, written by Peter Selinger 2001-2011
</metadata>
<g transform="translate(0.000000,259.000000) scale(0.100000,-0.100000)"
fill="#ff0000" stroke="none">
<path d="M1080 2570 c-25 -4 -62 -15 -84 -24 -21 -9 -46 -16 -55 -16 -9 0 -27
-10 -41 -21 l-25 -20 32 15 c18 9 46 16 63 16 17 0 39 4 49 10 10 5 59 12 109
15 75 4 96 3 117 -11 14 -9 25 -13 25 -10 0 4 11 -1 25 -10 24 -16 25 -16 18
2 -5 13 6 8 34 -16 23 -19 42 -41 42 -48 1 -7 6 -10 11 -7 6 4 8 11 5 16 -4 5
-2 9 4 9 5 0 13 -4 16 -10 3 -5 1 -10 -4 -10 -6 0 -11 -8 -10 -17 0 -11 3 -13
6 -6 3 10 12 9 34 -3 17 -8 36 -13 42 -11 6 2 -3 10 -21 18 -20 8 -30 19 -27
27 3 8 5 18 5 23 0 4 7 6 15 3 18 -7 19 -3 3 31 -9 21 -9 28 1 35 10 6 8 10
-8 15 -29 9 -32 5 -22 -31 9 -32 5 -54 -11 -54 -6 0 -32 18 -58 40 -26 22 -55
40 -63 40 -9 0 -19 5 -22 10 -7 11 -138 11 -205 0z"/>
<path d="M1322 2574 c10 -9 98 -11 98 -2 0 4 -23 8 -52 8 -28 0 -49 -3 -46 -6z"/>
<path d="M1516 2539 c3 -5 1 -17 -4 -26 -5 -10 -6 -26 -3 -36 6 -17 9 -16 26
7 11 14 26 26 34 26 8 0 -2 -17 -23 -40 -53 -59 -44 -60 18 -1 30 28 60 51 66
51 19 0 80 -31 80 -41 0 -5 6 -9 13 -9 7 0 26 -13 42 -30 15 -16 33 -27 38
-23 6 3 7 1 3 -5 -7 -11 38 -62 54 -62 6 0 10 -3 10 -7 0 -5 14 -24 30 -43 27
-31 50 -112 42 -143 -1 -5 2 -6 8 -2 6 4 10 -6 10 -24 0 -16 4 -32 9 -35 14
-9 27 -181 20 -261 -1 -11 1 -29 6 -40 4 -12 -9 -3 -34 22 -23 23 -41 36 -41
28 0 -8 9 -21 21 -29 13 -9 18 -19 14 -27 -5 -8 -4 -10 3 -5 9 5 12 -6 12 -38
0 -39 -3 -45 -17 -40 -14 4 -15 3 -5 -4 29 -20 -9 -162 -42 -162 -10 0 -12 -7
-8 -22 5 -20 3 -21 -10 -10 -14 11 -16 10 -11 -10 3 -13 3 -20 -1 -17 -4 4 -9
20 -11 35 -2 16 -4 31 -4 34 -1 3 -5 -2 -10 -10 -11 -16 -6 -51 14 -120 24
-79 26 -124 14 -231 -6 -57 -13 -121 -15 -142 -2 -20 -13 -54 -24 -74 -23 -44
-27 -31 -5 20 31 76 12 58 -29 -26 -23 -48 -57 -103 -76 -122 -18 -19 -31 -38
-27 -42 4 -3 7 -1 7 6 0 7 4 10 9 7 5 -4 12 0 14 6 4 10 6 10 6 0 1 -13 -37
-93 -48 -102 -3 -3 -17 -27 -31 -53 -31 -63 -100 -122 -100 -87 0 6 6 10 13
10 15 0 40 27 51 55 7 18 6 18 -14 0 -11 -10 -20 -25 -20 -33 0 -11 -3 -12
-14 -3 -11 9 -18 3 -34 -31 -11 -24 -32 -54 -47 -68 l-28 -25 18 28 c27 42 12
43 -28 1 -29 -31 -42 -37 -87 -42 -38 -3 -51 -2 -46 7 4 6 1 11 -9 11 -9 0
-13 4 -10 10 3 5 0 7 -8 5 -7 -3 -24 3 -37 15 -44 39 -45 20 0 -22 l45 -43
-40 -3 c-23 -2 -52 2 -65 7 -21 9 -16 10 25 6 45 -4 47 -4 17 6 -18 5 -32 15
-31 22 3 19 -12 47 -26 47 -7 0 -19 17 -27 38 l-15 37 0 -40 c0 -22 -3 -52 -5
-67 -4 -22 -1 -28 13 -28 11 0 19 -6 19 -14 0 -17 44 -26 124 -26 87 1 127 12
209 62 117 70 175 136 236 263 29 60 56 112 61 115 4 3 21 28 38 56 38 66 60
176 71 366 7 135 10 151 40 213 71 146 99 481 54 630 -29 95 -39 120 -67 161
-39 57 -157 184 -200 216 -38 27 -45 29 -133 27 -51 -1 -90 -5 -87 -10z m-322
-2050 c-2 -4 -11 -6 -19 -2 -16 5 -20 25 -8 37 9 9 34 -24 27 -35z"/>
<path d="M370 2419 c0 -113 12 -148 15 -41 1 31 2 74 3 94 l2 36 155 1 155 2
0 -61 c0 -54 -4 -65 -27 -90 -27 -26 -53 -64 -53 -75 0 -14 19 -3 25 15 3 10
22 35 41 54 32 32 34 38 34 100 l0 66 -159 0 c-88 0 -166 3 -175 6 -14 5 -16
-8 -16 -107z"/>
<path d="M1840 2520 c-45 -3 -14 -6 100 -10 l165 -5 6 -105 5 -105 3 98 c2 53
4 104 5 113 1 14 -14 17 -109 18 -60 0 -139 -1 -175 -4z"/>
<path d="M1000 2506 c-50 -14 -100 -43 -100 -57 0 -10 24 -6 121 23 63 18 122
17 189 -4 8 -3 12 -3 7 -1 -4 3 -5 8 -2 13 9 14 -53 32 -100 28 -25 -2 -45 0
-45 4 0 10 -15 9 -70 -6z"/>
<path d="M2480 2393 c0 -69 3 -124 6 -121 5 5 11 98 13 196 1 30 3 32 36 32
19 0 35 5 35 10 0 6 -20 10 -45 10 l-45 0 0 -127z"/>
<path d="M1596 2471 c-10 -11 -15 -25 -10 -32 4 -8 3 -10 -5 -5 -12 8 -41 -10
-41 -24 0 -18 77 30 88 54 14 32 -6 36 -32 7z"/>
<path d="M1720 2456 c0 -9 32 -36 42 -36 6 0 1 9 -12 20 -23 20 -30 24 -30 16z"/>
<path d="M1015 2438 c-33 -5 -89 -16 -125 -24 -36 -8 -75 -14 -87 -14 -31 0
-53 -10 -53 -25 0 -19 27 -37 47 -32 15 4 15 6 -5 12 -37 12 -6 25 57 25 50 0
53 -1 36 -14 -11 -8 -24 -12 -30 -9 -5 3 -5 0 1 -6 9 -10 20 -9 50 7 120 63
185 84 240 80 31 -3 49 -1 42 3 -16 11 -94 9 -173 -3z"/>
<path d="M781 2426 c-10 -12 -8 -13 8 -9 12 3 21 9 21 14 0 14 -16 11 -29 -5z"/>
<path d="M1110 2420 c-25 -4 -88 -31 -140 -59 -137 -73 -205 -104 -330 -149
-8 -3 1 11 19 31 19 21 30 37 25 37 -18 0 -65 -56 -59 -71 3 -8 -15 -37 -41
-67 -26 -29 -44 -55 -41 -58 8 -8 88 67 98 92 6 18 18 24 66 29 81 9 112 15
118 25 2 4 -15 7 -40 6 -24 -1 -41 2 -37 6 4 4 31 8 60 9 29 1 50 4 47 7 -6 6
162 93 191 98 13 2 33 9 46 14 22 10 22 10 -4 7 -16 -3 -28 -3 -28 -1 0 7 57
32 70 32 34 -2 51 3 45 12 -3 6 -9 9 -13 9 -4 -1 -27 -5 -52 -9z"/>
<path d="M1198 2367 c-13 -4 -35 -9 -50 -9 -16 -1 -24 -6 -22 -13 3 -7 -2 -15
-12 -19 -12 -4 -15 -2 -10 9 8 22 -4 19 -62 -18 -29 -18 -49 -37 -45 -42 4 -4
2 -5 -5 -1 -16 9 -44 -12 -35 -27 4 -6 0 -8 -10 -4 -9 3 -17 3 -19 -1 -2 -4
-24 -18 -50 -31 -26 -13 -66 -41 -89 -62 -28 -26 -52 -39 -70 -39 -15 0 -30
-4 -34 -9 -12 -21 20 -21 90 0 57 16 88 34 137 74 80 66 162 115 193 115 13 0
30 6 37 13 7 6 20 13 28 15 8 2 17 7 20 12 7 11 28 12 152 11 73 -1 111 -5
120 -14 14 -14 78 -39 78 -31 0 3 18 -13 41 -35 22 -22 47 -37 54 -35 17 7
-85 113 -102 106 -7 -2 -29 6 -49 19 -33 20 -51 23 -150 24 -62 0 -123 -3
-136 -8z m-316 -180 c-22 -23 -102 -73 -102 -63 0 5 112 86 119 86 3 0 -5 -10
-17 -23z"/>
<path d="M746 2304 c-9 -8 -16 -17 -16 -18 0 -9 51 8 61 20 17 20 -25 19 -45
-2z"/>
<path d="M24 2291 c-2 -2 -4 -425 -4 -938 0 -744 3 -933 13 -929 6 3 19 9 28
12 9 3 38 17 65 30 38 18 42 23 19 18 -16 -3 -32 -10 -36 -15 -3 -5 -22 -12
-42 -16 l-36 -6 2 914 2 914 160 5 c88 3 156 7 150 8 -19 4 -317 7 -321 3z"/>
<path d="M2143 2284 c6 -7 309 -5 316 1 2 3 -69 5 -159 5 -90 0 -161 -3 -157
-6z"/>
<path d="M1630 2210 c0 -5 5 -10 10 -10 6 0 10 -9 10 -20 0 -11 3 -20 8 -20 8
0 38 -61 34 -72 -1 -5 3 -8 8 -8 5 0 10 -8 11 -17 0 -13 3 -11 10 6 7 17 6 27
-2 31 -6 4 -10 10 -10 14 1 3 -6 20 -14 36 -9 17 -13 35 -10 40 3 5 -3 14 -14
19 -25 14 -41 14 -41 1z"/>
<path d="M969 2190 c-91 -88 -134 -109 -244 -121 -135 -14 -154 -19 -174 -48
-49 -69 -60 -99 -55 -148 5 -44 2 -52 -35 -101 -50 -64 -52 -78 -6 -51 36 21
95 83 95 99 0 5 38 41 85 80 50 42 85 79 85 89 0 11 7 22 16 25 9 4 14 10 10
13 -7 7 -174 -159 -234 -232 -31 -39 -31 -38 8 32 23 39 59 88 80 107 23 20
34 36 25 36 -8 0 -30 -13 -48 -30 -19 -16 -39 -30 -45 -30 -6 0 -13 -8 -15
-17 -4 -17 -5 -17 -6 0 0 10 7 27 18 38 10 11 21 33 25 49 3 19 16 35 35 45
38 19 51 19 25 0 -12 -9 -14 -14 -6 -15 7 0 28 11 46 25 18 14 41 25 52 25 12
-1 7 -6 -15 -16 -19 -8 -31 -17 -28 -20 4 -4 23 2 44 12 46 22 73 27 73 14 0
-6 -7 -10 -15 -10 -8 0 -14 -3 -13 -7 1 -5 -3 -18 -10 -30 -7 -13 -10 -23 -7
-23 6 0 78 54 104 79 9 8 30 20 47 27 32 14 48 30 49 49 0 6 8 9 17 7 9 -1 19
2 23 8 4 6 -1 7 -12 4 -14 -4 -13 -1 5 15 13 11 22 24 20 29 -1 4 -10 1 -19
-8z"/>
<path d="M680 2170 c-8 -5 -11 -12 -7 -16 4 -4 15 0 24 9 18 18 8 23 -17 7z"/>
<path d="M1733 2024 c3 -27 22 -96 41 -154 19 -58 37 -121 41 -141 l7 -36
-154 -6 c-167 -8 -266 -28 -313 -65 -37 -30 -111 -30 -168 0 -38 19 -56 21
-187 20 -177 -2 -299 -25 -315 -60 -5 -12 -18 -22 -27 -22 -22 0 -22 -2 2 45
11 22 20 55 20 75 0 20 6 60 14 90 l14 55 -21 -26 c-12 -15 -31 -38 -41 -53
-10 -14 -26 -26 -34 -26 -8 0 -12 -3 -9 -7 4 -3 2 -12 -4 -20 -12 -13 -6 -123
8 -159 4 -12 2 -15 -8 -12 -8 2 -20 24 -28 47 -9 30 -16 39 -22 30 -9 -15 -2
-57 14 -76 6 -9 5 -18 -3 -28 -7 -9 -10 -18 -7 -22 9 -8 38 17 31 28 -3 5 1 6
9 4 7 -3 21 3 32 14 13 15 25 19 43 14 14 -3 23 -2 19 3 -3 5 12 8 34 6 37 -4
39 -2 45 26 4 17 13 33 22 37 8 3 73 11 143 17 116 10 134 10 190 -7 82 -25
96 -46 80 -122 -14 -73 -38 -111 -81 -134 -43 -24 -13 -26 33 -3 l32 16 -36
-38 c-57 -60 -58 -78 -9 -123 29 -27 38 -40 29 -44 -9 -3 -10 -6 -2 -6 28 -2
23 23 -11 54 -20 18 -36 36 -36 39 0 15 29 62 49 80 12 11 21 27 21 36 0 9 3
20 8 24 4 4 18 39 32 79 24 70 26 72 59 72 31 0 35 -4 53 -49 50 -129 110
-157 272 -130 49 8 104 21 123 29 39 16 69 62 79 119 8 49 22 79 34 71 5 -3
11 3 13 12 3 10 8 28 12 39 3 14 -1 28 -11 39 -11 10 -18 36 -20 68 -4 65 -14
110 -27 119 -6 3 -12 13 -13 20 -1 8 -12 36 -24 62 -12 27 -24 64 -27 83 -9
55 -27 53 -20 -3z m65 -369 c87 -3 94 -13 20 -29 -24 -5 -26 -9 -21 -45 7 -48
-21 -143 -49 -168 -11 -10 -22 -16 -24 -14 -3 2 -41 -2 -85 -9 -111 -17 -184
-9 -220 26 -16 15 -34 43 -40 63 -12 36 -15 118 -5 128 3 3 43 18 88 34 76 26
91 28 178 22 52 -3 123 -7 158 -8z m-1038 -75 c0 -13 -46 -24 -62 -14 -9 6 -4
11 17 15 45 10 45 10 45 -1z"/>
<path d="M1520 1634 c-19 -7 -43 -13 -52 -13 -21 -1 -21 -2 -8 -36 9 -23 14
-26 38 -20 35 9 54 25 48 42 -3 7 -1 13 5 13 6 0 9 -12 7 -27 -2 -19 -11 -30
-28 -35 -16 -5 -9 -6 19 -2 53 6 107 30 115 50 3 8 2 13 -2 10 -5 -3 -21 4
-38 15 -33 21 -54 22 -104 3z m110 -34 c0 -4 -11 -12 -25 -18 -24 -11 -25 -10
-25 18 0 28 1 29 25 18 14 -6 25 -14 25 -18z m-132 -18 c6 -18 -15 -14 -22 4
-4 10 -1 14 6 12 6 -2 14 -10 16 -16z"/>
<path d="M1393 1573 c8 -13 57 -23 57 -12 0 5 -6 9 -14 9 -8 0 -22 3 -32 7
-11 4 -15 3 -11 -4z"/>
<path d="M635 1995 c-25 -11 -27 -14 -9 -14 12 -1 27 6 34 14 15 18 14 18 -25
0z"/>
<path d="M710 1938 c-30 -28 -54 -56 -52 -61 1 -4 -2 -6 -7 -3 -9 6 -71 -78
-71 -96 0 -4 -6 -8 -14 -8 -7 0 -34 -23 -60 -51 -34 -37 -52 -50 -67 -46 -23
6 -34 -26 -26 -76 8 -49 55 -145 83 -170 41 -35 88 -118 94 -164 3 -24 10 -43
15 -43 14 0 9 140 -6 154 -9 8 -10 3 -5 -23 l6 -34 -24 34 -23 34 23 26 c25
26 31 49 15 49 -5 0 -13 -9 -16 -20 -3 -11 -11 -20 -17 -20 -6 0 -5 7 3 17 12
15 12 16 -3 10 -10 -3 -18 -2 -18 3 0 5 -12 7 -27 4 -22 -4 -24 -3 -15 9 10
11 9 17 -3 27 -21 17 -19 37 4 45 11 3 18 11 15 18 -2 7 6 28 18 47 12 19 24
49 26 65 5 43 35 87 88 131 62 50 96 85 90 91 -2 3 -23 -12 -45 -32 -22 -21
-51 -45 -63 -54 -21 -14 -21 -13 3 16 40 47 93 91 106 86 16 -6 43 36 36 55
-4 10 -2 13 5 8 8 -5 10 -2 6 8 -9 23 -13 21 -74 -36z m-130 -190 c0 -6 -35
-44 -77 -84 -42 -41 -74 -76 -71 -80 4 -3 23 12 43 33 l36 38 -18 -34 c-10
-18 -24 -45 -32 -59 l-14 -25 -14 27 c-17 33 -10 72 15 81 9 3 40 30 67 60 51
55 65 64 65 43z"/>
<path d="M1956 1880 c9 -38 24 -48 24 -16 0 15 -4 25 -9 22 -5 -4 -12 0 -15 6
-3 7 -3 2 0 -12z"/>
<path d="M1490 1828 c-47 -12 -85 -42 -75 -58 6 -9 26 -11 79 -5 39 4 95 8
123 8 29 1 54 7 55 12 4 15 -82 54 -117 54 -16 -1 -46 -5 -65 -11z"/>
<path d="M990 1761 c-43 -9 -75 -29 -89 -56 -11 -19 -11 -19 -5 3 9 35 -10 26
-30 -14 -16 -35 -16 -36 1 -30 9 4 37 10 61 13 24 3 39 9 34 12 -5 3 31 7 80
9 91 2 132 14 125 35 -9 29 -101 43 -177 28z"/>
<path d="M877 1589 c-25 -19 -27 -19 -21 -2 5 16 4 16 -11 -2 -9 -11 -21 -19
-26 -17 -6 1 -8 -2 -4 -8 3 -5 1 -10 -4 -10 -6 0 -11 -8 -11 -17 1 -15 4 -15
20 5 10 13 21 23 24 22 16 -1 23 3 51 25 36 30 21 33 -18 4z"/>
<path d="M993 1600 c-69 -10 -192 -95 -170 -117 2 -2 21 10 41 27 36 28 40 29
66 15 24 -12 42 -13 107 -4 42 6 86 15 96 21 17 9 16 12 -14 39 -34 30 -41 31
-126 19z m98 -24 c29 -25 28 -36 -3 -36 -12 0 -18 7 -18 24 0 15 -7 26 -17 29
-10 3 -12 5 -4 6 7 0 26 -10 42 -23z m-131 -26 c0 -23 -13 -26 -29 -6 -9 11
-9 15 1 19 23 10 28 7 28 -13z m60 10 c0 -5 -7 -10 -16 -10 -8 0 -12 -4 -9
-10 7 -11 -8 -14 -18 -3 -4 3 1 12 11 19 21 16 32 17 32 4z"/>
<path d="M722 1513 c8 -10 25 -43 37 -74 12 -31 32 -66 45 -78 27 -26 114 -39
211 -31 95 7 55 19 -63 19 -69 -1 -99 4 -117 15 -30 19 -75 105 -75 141 0 20
-5 25 -27 25 -24 0 -25 -1 -11 -17z"/>
<path d="M646 1468 c-15 -68 -16 -78 -7 -78 5 0 12 6 14 13 3 6 6 -7 6 -31 1
-26 -3 -41 -9 -37 -5 3 -10 -3 -10 -14 0 -12 -5 -21 -11 -21 -5 0 -7 -5 -3
-11 4 -7 14 0 25 18 20 30 25 129 9 168 -7 18 -8 18 -14 -7z"/>
<path d="M786 1476 c2 -6 25 -24 49 -38 25 -15 45 -35 45 -43 0 -9 4 -14 9
-11 5 4 12 0 15 -6 3 -7 4 -2 3 12 -1 14 -8 30 -16 36 -10 8 2 10 45 8 57 -3
58 -3 19 7 -22 5 -64 15 -92 21 -29 6 -53 14 -53 18 0 4 -6 7 -14 7 -8 0 -12
-5 -10 -11z"/>
<path d="M914 1479 c-6 -11 86 -12 103 -1 6 4 -13 8 -43 8 -30 1 -57 -2 -60
-7z"/>
<path d="M1295 1403 c2 -33 -3 -49 -26 -77 -32 -38 -24 -59 9 -23 22 24 46 97
32 97 -5 0 -11 10 -13 23 -3 12 -3 3 -2 -20z"/>
<path d="M1428 1317 c18 -18 32 -40 32 -48 0 -9 -16 -32 -35 -52 -39 -40 -42
-47 -20 -47 8 0 15 4 15 8 0 5 16 26 35 47 33 38 34 40 18 65 -20 31 -52 60
-66 60 -6 0 3 -15 21 -33z"/>
<path d="M845 1248 c-18 -56 -33 -188 -20 -176 4 4 9 38 11 74 2 37 8 70 14
74 11 7 27 80 17 80 -2 0 -13 -24 -22 -52z"/>
<path d="M1363 1234 c-37 -19 -45 -39 -10 -28 53 16 68 25 62 34 -8 13 -14 12
-52 -6z"/>
<path d="M1185 1220 c22 -10 42 -16 45 -14 9 10 -34 34 -59 33 -23 -1 -22 -3
14 -19z"/>
<path d="M1575 1160 c-29 -7 -29 -8 -5 -10 19 -2 16 -4 -13 -9 -35 -6 -54 -28
-21 -25 8 1 14 -3 14 -10 0 -17 -76 -45 -170 -61 -92 -16 -181 -10 -290 20
-64 17 -80 18 -80 6 0 -10 57 -26 79 -22 7 1 11 -2 8 -6 -3 -5 13 -10 36 -10
22 -1 62 -8 88 -14 39 -10 65 -9 155 6 124 21 195 53 187 84 -4 15 2 21 27 26
39 9 60 -7 44 -33 -15 -24 -7 -46 11 -28 27 27 29 62 4 80 -25 17 -29 18 -74
6z"/>
<path d="M980 1142 c-59 -27 -77 -66 -45 -99 14 -13 17 -12 34 9 13 15 18 32
14 51 -4 22 -2 26 10 21 8 -3 18 0 22 5 3 6 11 9 16 6 5 -4 9 -1 9 4 0 12 -36
14 -60 3z"/>
<path d="M616 1112 c-3 -6 1 -15 8 -21 8 -7 17 -8 20 -3 3 6 -1 15 -8 21 -8 7
-17 8 -20 3z"/>
<path d="M1181 1099 c-20 -8 -22 -11 -10 -26 13 -15 14 -15 17 0 2 10 10 17
17 17 8 0 17 5 20 10 8 12 -12 12 -44 -1z"/>
<path d="M1220 1081 c0 -6 4 -12 9 -15 13 -8 42 4 35 15 -7 12 -44 12 -44 0z"/>
<path d="M636 1046 c3 -8 12 -17 21 -20 11 -5 13 -2 9 10 -3 8 -6 18 -6 20 0
2 -7 4 -15 4 -8 0 -12 -6 -9 -14z"/>
<path d="M846 1044 c-6 -16 20 -64 35 -64 12 0 11 10 -2 49 -12 34 -24 40 -33
15z"/>
<path d="M704 965 c13 -34 103 -161 155 -219 34 -36 61 -70 61 -74 0 -4 12
-15 25 -25 28 -20 34 -7 9 18 -9 9 -14 18 -12 20 3 3 -24 34 -58 70 -43 44
-61 71 -57 81 4 11 -15 35 -61 78 -37 35 -65 57 -62 51z m116 -127 c0 -14 -19
1 -31 25 -12 22 -12 22 10 3 11 -11 21 -23 21 -28z"/>
<path d="M1247 966 c-4 -10 0 -12 14 -9 22 6 26 23 5 23 -8 0 -16 -6 -19 -14z"/>
<path d="M1264 899 c-16 -17 -16 -22 -4 -30 18 -12 71 -3 81 13 5 7 3 18 -3
25 -16 19 -53 16 -74 -8z"/>
<path d="M897 873 c-19 -19 8 -133 32 -133 12 0 -7 62 -22 71 -5 4 -7 15 -3
24 5 14 9 15 21 5 25 -21 27 -5 2 18 -13 12 -27 19 -30 15z"/>
<path d="M960 801 c5 -11 12 -37 14 -58 4 -44 24 -87 56 -120 21 -23 36 -31
25 -14 -3 5 13 17 34 27 22 10 39 22 38 28 -1 6 5 9 13 7 8 -2 25 -3 38 -3 13
1 22 -4 22 -12 0 -8 6 -17 13 -20 9 -5 9 -7 -1 -12 -8 -4 -5 -11 10 -25 13
-10 18 -18 12 -19 -7 0 -15 -7 -18 -16 -4 -9 11 -1 33 19 22 20 54 43 70 52
17 8 31 22 31 31 0 11 -9 8 -37 -13 -21 -15 -42 -34 -46 -40 -12 -19 -39 -16
-36 5 1 9 1 24 0 32 -1 18 -53 43 -73 35 -12 -5 -15 0 -12 22 4 26 4 26 -5 6
-6 -13 -15 -23 -21 -23 -5 0 -10 -10 -10 -22 0 -17 -3 -19 -11 -11 -9 9 -8 18
3 35 15 22 14 23 -21 24 -20 1 -28 0 -18 -3 20 -5 24 -52 5 -71 -19 -19 -37
-14 -36 11 3 46 -2 77 -13 77 -6 0 -9 -6 -6 -12 2 -7 7 -23 11 -35 10 -32 -12
-29 -26 3 -9 20 -9 30 1 46 7 11 8 18 3 14 -5 -3 -14 13 -21 34 -6 22 -16 40
-22 40 -6 0 -6 -7 1 -19z"/>
<path d="M750 770 c-6 -12 -9 -24 -7 -27 3 -2 11 5 17 17 6 12 9 24 7 27 -3 2
-11 -5 -17 -17z"/>
<path d="M1781 769 c-1 -8 8 -25 19 -37 24 -26 32 -28 24 -7 -4 8 -9 15 -14
15 -4 0 -12 10 -18 23 -7 15 -11 17 -11 6z"/>
<path d="M1030 756 c0 -8 5 -18 10 -21 6 -3 10 1 10 9 0 8 -4 18 -10 21 -5 3
-10 -1 -10 -9z"/>
<path d="M1520 731 c0 -5 -8 -12 -17 -14 -15 -4 -15 -5 -2 -6 9 0 22 6 29 14
9 10 9 15 1 15 -6 0 -11 -4 -11 -9z"/>
<path d="M1770 712 c0 -10 37 -42 49 -42 10 0 41 -61 41 -81 0 -53 -107 -277
-125 -261 -5 4 -5 1 0 -6 11 -20 -97 -121 -175 -165 -98 -54 -138 -62 -224
-43 -78 18 -107 35 -247 147 -105 85 -181 164 -240 253 -21 32 -39 54 -39 49
0 -5 7 -19 16 -31 9 -13 14 -25 11 -28 -2 -3 7 -17 22 -33 14 -15 52 -58 85
-95 74 -85 254 -231 326 -265 85 -40 174 -37 265 9 123 62 220 169 295 325 30
61 34 80 35 148 0 79 4 88 25 62 7 -8 16 -15 21 -15 5 0 48 -18 95 -40 47 -22
88 -40 90 -40 2 0 23 -9 47 -19 23 -11 74 -32 112 -46 39 -15 97 -40 130 -55
108 -49 130 -58 158 -65 40 -10 33 9 -10 28 -447 186 -514 215 -533 231 -22
18 -126 50 -138 42 -6 -3 -24 5 -40 19 -30 25 -52 32 -52 17z"/>
<path d="M1278 685 c-3 -14 -1 -28 3 -31 5 -3 9 3 9 13 0 11 5 24 12 31 9 9 8
12 -4 12 -9 0 -18 -11 -20 -25z"/>
<path d="M660 686 c-52 -18 -108 -45 -114 -54 -2 -4 -16 -98 -31 -208 -14
-109 -34 -236 -45 -282 -22 -92 -25 -142 -10 -142 6 0 10 9 10 20 0 10 9 57
19 102 26 111 41 216 41 286 0 36 3 52 9 43 5 -7 13 -11 19 -7 6 3 13 -2 15
-11 3 -10 3 2 1 27 l-4 45 15 -39 c8 -21 12 -42 10 -46 -3 -5 -1 -11 5 -15 6
-4 10 8 10 29 0 19 -4 37 -8 40 -5 3 -8 31 -6 63 3 73 32 112 106 141 45 18
49 21 23 20 -16 0 -46 -6 -65 -12z"/>
<path d="M1248 676 c-3 -14 -1 -31 3 -38 6 -8 9 1 9 25 0 42 -6 48 -12 13z"/>
<path d="M1470 692 c0 -4 -20 -30 -44 -57 -24 -26 -46 -59 -49 -72 -4 -23 -4
-23 13 -6 10 10 16 21 14 24 -2 3 15 27 36 53 37 44 48 66 35 66 -3 0 -5 -4
-5 -8z"/>
<path d="M1400 679 c-14 -5 -34 -24 -44 -43 -12 -24 -27 -36 -49 -40 -31 -6
-67 -32 -67 -48 0 -14 14 -9 41 16 16 15 35 23 52 21 19 -2 24 1 20 11 -4 10
0 12 13 7 11 -4 15 -3 10 5 -3 6 -2 13 3 17 10 5 55 66 49 64 -2 0 -14 -5 -28
-10z"/>
<path d="M500 657 c-27 -13 -41 -22 -71 -49 -10 -10 -25 -18 -33 -18 -7 0 -19
-7 -26 -15 -7 -8 -10 -15 -7 -15 10 0 62 24 73 35 7 5 23 18 38 29 67 49 72
54 26 33z"/>
<path d="M1550 659 c0 -5 -5 -7 -12 -3 -6 4 -8 3 -4 -4 3 -5 3 -12 -1 -14 -11
-4 -44 -68 -35 -68 7 1 72 85 72 95 0 3 -4 5 -10 5 -5 0 -10 -5 -10 -11z"/>
<path d="M1128 632 c-30 -18 -36 -36 -16 -48 7 -5 9 -2 5 9 -4 10 1 18 13 22
19 6 49 36 34 34 -5 0 -21 -8 -36 -17z"/>
<path d="M650 595 c-10 -13 -11 -40 -1 -138 19 -195 22 -219 34 -272 6 -27 11
-75 12 -105 2 -73 3 -80 15 -80 14 0 12 80 -6 195 -19 122 -33 261 -35 349 -1
36 -3 66 -4 66 -2 0 -8 -7 -15 -15z"/>
<path d="M1049 586 c-10 -10 2 -54 18 -68 19 -16 56 -22 48 -8 -4 6 -1 17 5
25 17 20 1 19 -22 -2 -22 -19 -28 -15 -37 27 -3 17 -9 29 -12 26z"/>
<path d="M710 575 c0 -3 12 -29 26 -58 15 -29 37 -83 50 -121 13 -37 41 -98
61 -133 21 -36 43 -74 49 -84 6 -10 14 -16 17 -12 4 3 18 -4 32 -17 45 -42 36
-14 -11 36 -61 65 -74 85 -76 120 -1 16 -5 31 -9 34 -7 6 -61 110 -56 110 2 0
70 -88 83 -109 2 -1 7 0 13 3 10 7 5 15 -71 99 -20 22 -49 62 -65 89 -24 41
-43 60 -43 43z"/>
<path d="M285 542 c-27 -9 -51 -20 -53 -24 -2 -4 -12 -8 -23 -8 -10 0 -19 -5
-19 -11 0 -11 41 -2 50 11 3 4 29 15 58 24 28 10 52 19 52 22 0 6 -11 4 -65
-14z"/>
<path d="M312 458 c-7 -7 -12 -40 -12 -77 0 -37 -7 -136 -14 -221 -8 -85 -13
-157 -11 -159 2 -1 8 0 13 3 9 5 27 221 24 281 -1 17 1 41 4 55 l7 25 14 -30
14 -30 -5 40 c-3 22 -9 53 -12 69 -9 40 16 30 37 -15 20 -41 34 -119 22 -119
-4 0 -9 -64 -11 -142 -2 -78 0 -139 4 -135 11 10 33 190 34 267 0 124 -62 234
-108 188z"/>
<path d="M1903 384 c-7 -7 -13 -16 -13 -20 0 -4 -12 -22 -26 -41 -14 -19 -24
-36 -21 -39 5 -5 47 49 66 84 15 28 11 36 -6 16z"/>
<path d="M50 353 c1 -16 12 -46 26 -68 41 -67 95 -186 106 -237 6 -26 17 -48
23 -48 9 0 8 19 -5 72 -15 68 -37 111 -112 227 -19 30 -25 48 -18 55 14 14 12
26 -5 26 -10 0 -15 -10 -15 -27z"/>
<path d="M745 290 c2 -36 7 -116 11 -178 4 -62 9 -110 13 -107 3 4 7 66 7 139
2 112 -1 138 -17 172 l-19 39 5 -65z"/>
<path d="M236 303 c-3 -21 -5 -99 -5 -173 1 -107 3 -124 9 -85 11 62 17 295 9
295 -4 0 -9 -17 -13 -37z"/>
<path d="M890 334 c0 -3 7 -12 15 -21 20 -19 32 -9 15 12 -12 15 -30 20 -30 9z"/>
<path d="M942 275 c3 -20 26 -51 32 -44 2 2 -5 18 -16 34 -14 22 -18 25 -16
10z"/>
<path d="M1755 182 c-17 -11 -55 -64 -55 -75 0 -5 10 3 22 19 13 16 28 35 35
42 19 20 18 28 -2 14z"/>
<path d="M311 118 c0 -7 4 -22 9 -33 6 -16 8 -14 7 13 0 17 -4 32 -9 32 -4 0
-8 -6 -7 -12z"/>
<path d="M90 15 c-25 -14 -25 -14 14 -15 33 0 37 2 26 15 -7 8 -13 15 -14 15
0 -1 -12 -7 -26 -15z"/>
</g>
</svg>
